<?xml version="1.0" standalone="no"?>
<!DOCTYPE svg PUBLIC "-//W3C//DTD SVG 20010904//EN"
 "http://www.w3.org/TR/2001/REC-SVG-20010904/DTD/svg10.dtd">
<svg version="1.0" xmlns="http://www.w3.org/2000/svg"
 width="1098.000000pt" height="720.000000pt" viewBox="0 0 1098.000000 720.000000"
 preserveAspectRatio="xMidYMid meet">
<metadata>
Created by potrace 1.16, written by Peter Selinger 2001-2019
</metadata>
<g transform="translate(0.000000,720.000000) scale(0.100000,-0.100000)"
fill="#000000" stroke="none">
<path d="M6975 6932 c-501 -735 -1359 -1949 -1985 -2807 -168 -231 -310 -426
-314 -433 -6 -10 0 -10 26 1 36 16 332 151 415 190 52 24 57 31 994 1348 518
728 947 1330 953 1337 9 10 35 -20 118 -135 58 -82 129 -179 156 -216 l49 -68
88 122 c48 67 89 128 92 134 3 9 -435 611 -486 667 -3 4 -51 -59 -106 -140z"/>
<path d="M4845 5848 c-8 -20 1 -36 138 -245 54 -84 97 -159 94 -166 -3 -7
-370 -498 -817 -1091 -446 -592 -810 -1080 -807 -1083 9 -8 287 63 440 113
143 47 478 172 574 216 52 23 56 28 533 697 264 371 480 679 480 685 0 6 -132
196 -293 421 -375 527 -334 473 -342 453z"/>
<path d="M9210 4022 c-73 -142 -279 -485 -422 -703 -358 -546 -866 -1209
-1158 -1511 l-75 -78 1708 0 c1364 0 1707 3 1701 13 -4 6 -163 230 -353 497
-812 1142 -1334 1875 -1340 1882 -3 4 -31 -41 -61 -100z m114 -613 l17 -27
-138 -113 c-76 -62 -163 -133 -193 -158 -54 -46 -54 -46 -30 -11 13 19 44 64
70 100 26 36 84 118 130 183 l83 118 22 -33 c12 -18 29 -45 39 -59z"/>
<path d="M4856 3709 c-131 -60 -242 -109 -245 -110 -3 0 -178 -231 -388 -512
-372 -499 -909 -1200 -986 -1288 l-39 -44 35 50 c39 57 1195 1683 1210 1703 5
7 8 14 6 17 -3 2 -65 -21 -139 -51 -266 -109 -706 -245 -870 -269 l-45 -7
-490 -651 c-269 -358 -506 -672 -527 -697 l-36 -47 -132 -5 c-125 -5 -134 -6
-151 -29 -13 -17 -14 -26 -6 -31 7 -4 1103 -7 2437 -6 1334 2 2322 4 2196 5
l-228 3 27 36 28 36 -414 -6 c-738 -12 -1318 -26 -1691 -42 -76 -4 -138 -5
-138 -3 0 2 51 76 114 164 l115 160 -310 5 -309 5 611 858 c336 472 609 860
607 862 -2 1 -111 -47 -242 -106z"/>
<path d="M1500 805 l0 -75 105 0 105 0 0 -265 0 -265 90 0 90 0 0 265 0 265
105 0 105 0 0 75 0 75 -300 0 -300 0 0 -75z"/>
<path d="M2240 541 l0 -341 85 0 85 0 0 120 0 120 50 0 50 0 60 -120 60 -120
95 0 c52 0 95 3 95 7 0 3 -29 62 -65 131 l-66 126 28 22 c15 13 31 23 35 24
14 0 58 106 58 139 0 91 -49 168 -130 205 -40 18 -69 21 -242 24 l-198 4 0
-341z m364 168 c19 -15 26 -30 26 -54 0 -56 -35 -75 -136 -75 l-84 0 0 75 0
75 84 0 c69 0 88 -4 110 -21z"/>
<path d="M2950 540 l0 -340 85 0 85 0 0 340 0 340 -85 0 -85 0 0 -340z"/>
<path d="M3300 541 l0 -341 90 0 90 0 0 115 0 115 104 0 c109 0 149 9 207 47
99 65 116 225 33 321 -57 67 -90 76 -321 80 l-203 4 0 -341z m360 174 c52 -27
52 -106 0 -132 -14 -7 -60 -13 -102 -13 l-78 0 0 80 0 80 75 0 c48 0 87 -6
105 -15z"/>
<path d="M4290 541 l0 -341 85 0 85 0 0 114 0 114 123 4 c131 4 176 18 224 70
73 77 70 222 -5 301 -61 65 -87 71 -309 75 l-203 4 0 -341z m364 168 c32 -25
35 -75 7 -110 -17 -21 -29 -24 -110 -27 l-91 -4 0 81 0 81 84 0 c69 0 88 -4
110 -21z"/>
<path d="M5020 540 l0 -340 250 0 250 0 0 75 0 75 -165 0 -165 0 0 265 0 265
-85 0 -85 0 0 -340z"/>
<path d="M5786 623 c-55 -142 -115 -295 -132 -340 l-33 -83 94 0 93 0 27 80
27 80 117 0 118 0 27 -80 28 -80 95 0 c85 0 94 2 89 18 -4 9 -62 161 -129 337
l-123 320 -100 3 -99 2 -99 -257z"/>
<path d="M6460 540 l0 -340 80 0 80 0 2 197 3 198 144 -198 145 -197 78 0 78
0 0 340 0 340 -80 0 -80 0 -2 -195 -3 -195 -143 195 -143 195 -80 0 -79 0 0
-340z"/>
<path d="M7260 540 l0 -340 86 0 87 0 -8 202 c-4 112 -4 200 0 196 4 -3 71
-93 149 -200 l142 -193 82 -3 82 -3 0 341 0 340 -85 0 -85 0 -2 -192 -3 -192
-140 192 -140 192 -82 0 -83 0 0 -340z"/>
<path d="M8070 540 l0 -340 260 0 260 0 0 70 0 70 -175 0 -175 0 0 65 0 65
120 0 120 0 0 70 0 70 -120 0 -120 0 0 60 0 60 170 0 170 0 0 75 0 75 -255 0
-255 0 0 -340z"/>
<path d="M8750 541 l0 -341 90 0 90 0 0 120 0 120 50 0 50 0 60 -120 60 -120
95 0 c52 0 95 3 95 7 0 3 -29 62 -65 130 l-65 123 49 48 c114 110 85 280 -59
346 -40 18 -68 21 -247 24 l-203 4 0 -341z m375 164 c30 -29 32 -64 6 -96 -17
-21 -29 -24 -110 -27 l-91 -4 0 76 0 76 85 0 c78 0 88 -2 110 -25z"/>
</g>
</svg>
